<svg width="279" height="61" viewBox="0 0 279 61" fill="none" xmlns="http://www.w3.org/2000/svg">
<path opacity="0.8" d="M0.5084 45V44.3645L2.09715 43.7925C2.94448 43.4536 3.60117 43.0511 4.0672 42.5851C4.53323 42.0767 4.91453 41.3776 5.2111 40.4879L18.3024 2.92989H23.7042L36.6048 40.7421C36.9437 41.6742 37.325 42.3944 37.7487 42.9028C38.1724 43.3689 38.8291 43.7714 39.7188 44.1103L40.4814 44.3645V45H24.3397V44.3645L25.2929 44.0467C26.1826 43.7078 26.7122 43.2418 26.8817 42.6486C27.0935 42.0131 27.0723 41.2717 26.8181 40.4244L23.8313 31.2732H9.72315L6.67275 40.2337C6.37618 41.1658 6.27027 41.9072 6.355 42.458C6.4821 43.0088 6.9905 43.4536 7.8802 43.7925L9.2783 44.3645V45H0.5084ZM10.168 30.0022H23.45L17.0314 10.2381L10.168 30.0022ZM38.981 45V44.3645L39.7436 44.1103C41.2688 43.6019 42.0314 42.5427 42.0314 40.9328V6.93355C42.0314 6.08621 41.8619 5.45071 41.523 5.02705C41.184 4.56101 40.5909 4.22208 39.7436 4.01025L38.9174 3.8196V3.18409L50.5471 0.451446L51.3097 1.0234L51.0555 9.9204V31.6545C51.0555 33.2221 51.0555 34.7896 51.0555 36.3572C51.0978 37.8824 51.119 39.4076 51.119 40.9328C51.119 41.7801 51.2885 42.4792 51.6274 43.0299C51.9664 43.5383 52.5383 43.9196 53.3433 44.1738L54.1694 44.3645V45H38.981ZM53.3517 45V44.3645L54.1143 44.1103C55.6395 43.6019 56.4021 42.5427 56.4021 40.9328V6.93355C56.4021 6.08621 56.2326 5.45071 55.8937 5.02705C55.5548 4.56101 54.9616 4.22208 54.1143 4.01025L53.2882 3.8196V3.18409L64.9178 0.451446L65.6804 1.0234L65.4262 9.9204V31.6545C65.4262 33.2221 65.4262 34.7896 65.4262 36.3572C65.4686 37.8824 65.4898 39.4076 65.4898 40.9328C65.4898 41.7801 65.6592 42.4792 65.9982 43.0299C66.3371 43.5383 66.909 43.9196 67.714 44.1738L68.5402 44.3645V45H53.3517ZM89.6328 45.9533C86.9213 45.9533 84.803 45.2754 83.2778 43.9196C81.795 42.5639 81.0536 40.4032 81.0536 37.4375V15.7034H76.6686V15.0679L78.1938 14.8137C79.5072 14.5172 80.6299 14.0935 81.562 13.5427C82.5364 12.992 83.4896 12.2506 84.4217 11.3185L89.6328 5.53544H90.2683L90.0777 14.4324H97.1953V15.7034H90.0141V38.5814C90.0141 40.0643 90.3319 41.187 90.9674 41.9496C91.6452 42.7122 92.4926 43.0935 93.5094 43.0935C94.3991 43.0935 95.1828 42.8817 95.8607 42.458C96.5386 41.992 97.2164 41.3776 97.8943 40.615L98.5298 41.2505C97.6825 42.691 96.5174 43.8349 95.0346 44.6822C93.5517 45.5296 91.7511 45.9533 89.6328 45.9533ZM96.8984 45V44.3645L97.661 44.1103C99.1862 43.6019 99.9488 42.5427 99.9488 40.9328V6.9971C99.9488 6.1074 99.8005 5.45071 99.5039 5.02705C99.2073 4.60338 98.6354 4.28563 97.7881 4.07379L96.8348 3.8196V3.18409L108.02 0.451446L109.036 1.0234L108.782 9.98395V17.9277C110.265 16.6991 111.854 15.6611 113.548 14.8137C115.285 13.924 117.192 13.4792 119.268 13.4792C122.022 13.4792 124.204 14.263 125.814 15.8305C127.466 17.3981 128.292 19.813 128.292 23.0752V40.9963C128.292 41.8437 128.462 42.5215 128.8 43.0299C129.139 43.5383 129.733 43.9196 130.58 44.1738L131.088 44.3645V45H116.218V44.3645L116.98 44.1738C118.505 43.6654 119.268 42.5851 119.268 40.9328V20.9781C119.268 19.2834 118.971 18.1183 118.378 17.4828C117.828 16.8473 116.832 16.5296 115.391 16.5296C114.459 16.5296 113.443 16.7202 112.341 17.1015C111.239 17.4405 110.117 18.0548 108.973 18.9445V41.0599C108.973 42.7122 109.735 43.7714 111.261 44.2374L111.769 44.3645V45H96.8984ZM145.71 13.4792C148.464 13.4792 150.815 14.0511 152.764 15.195C154.713 16.2966 156.195 17.8218 157.212 19.7706C158.271 21.6771 158.801 23.859 158.801 26.3163C158.801 26.7823 158.78 27.2695 158.737 27.7779C158.695 28.244 158.61 28.6676 158.483 29.0489H139.545C139.588 33.6245 140.393 36.9291 141.96 38.9627C143.57 40.954 145.943 41.9496 149.078 41.9496C151.196 41.9496 152.912 41.6107 154.225 40.9328C155.539 40.2549 156.767 39.2593 157.911 37.9459L158.547 38.5179C157.233 40.8481 155.475 42.6698 153.272 43.9832C151.111 45.2966 148.506 45.9533 145.456 45.9533C142.448 45.9533 139.778 45.3178 137.448 44.0467C135.118 42.7334 133.296 40.8692 131.983 38.4543C130.67 36.0394 130.013 33.1585 130.013 29.8115C130.013 26.3375 130.775 23.393 132.301 20.9781C133.826 18.5208 135.775 16.6567 138.147 15.3857C140.562 14.1147 143.083 13.4792 145.71 13.4792ZM145.519 14.7502C144.29 14.7502 143.231 15.1315 142.342 15.8941C141.494 16.6143 140.816 17.9277 140.308 19.8342C139.842 21.6983 139.588 24.3462 139.545 27.7779H150.412C150.836 23.16 150.667 19.8342 149.904 17.8006C149.141 15.767 147.68 14.7502 145.519 14.7502ZM181.209 45.1907L171.423 18.309C170.957 16.9533 170.025 16 168.626 15.4492L167.546 15.0679V14.4324H183.116V15.0679L182.163 15.3221C180.51 15.8305 179.96 16.8473 180.51 18.3725L186.42 36.3572L191.695 22.3762L190.488 18.7538C190.191 17.8218 189.873 17.1227 189.534 16.6567C189.238 16.1483 188.835 15.7882 188.327 15.5763L187.247 15.0679V14.4324H200.401V15.0679L199.512 15.4492C198.876 15.7034 198.495 16.0424 198.368 16.466C198.241 16.8897 198.325 17.5252 198.622 18.3725L204.469 36.0394L210.506 18.4996C211.099 16.8897 210.781 15.8729 209.553 15.4492L208.155 15.0679V14.4324H215.781V15.0679L214.255 15.5128C213.535 15.7246 213.006 16.0636 212.667 16.5296C212.37 16.9533 212.095 17.5464 211.84 18.309L202.689 45.1907H199.448L192.394 24.4098L184.895 45.1907H181.209ZM221.806 45.9533C219.349 45.9533 217.273 45.2542 215.578 43.8561C213.926 42.458 213.1 40.4456 213.1 37.8188C213.1 35.8276 214.116 34.0058 216.15 32.3535C218.184 30.6589 221.382 29.3879 225.746 28.5405C226.424 28.4134 227.186 28.2863 228.034 28.1592C228.881 27.9898 229.771 27.8203 230.703 27.6508V22.6304C230.703 19.7495 230.343 17.737 229.623 16.5931C228.945 15.4069 227.864 14.8137 226.381 14.8137C225.365 14.8137 224.56 15.1527 223.967 15.8305C223.373 16.466 222.992 17.5888 222.823 19.1987L222.696 19.8977C222.611 21.7195 222.166 23.0541 221.361 23.9014C220.556 24.7487 219.56 25.1724 218.374 25.1724C217.273 25.1724 216.362 24.8335 215.642 24.1556C214.921 23.4777 214.561 22.5668 214.561 21.4229C214.561 19.6859 215.154 18.2243 216.341 17.038C217.569 15.8517 219.179 14.962 221.17 14.3689C223.162 13.7758 225.322 13.4792 227.652 13.4792C231.423 13.4792 234.325 14.4113 236.359 16.2754C238.435 18.0972 239.473 21.084 239.473 25.2359V39.2805C239.473 41.187 240.362 42.1402 242.142 42.1402H243.54L244.112 42.6486C243.307 43.6654 242.417 44.4492 241.443 45C240.511 45.5508 239.176 45.8262 237.439 45.8262C235.575 45.8262 234.092 45.4025 232.991 44.5551C231.932 43.6654 231.232 42.5004 230.894 41.0599C229.623 42.4156 228.309 43.5807 226.953 44.5551C225.64 45.4872 223.924 45.9533 221.806 45.9533ZM225.682 42.0767C226.53 42.0767 227.314 41.886 228.034 41.5047C228.796 41.0811 229.686 40.4456 230.703 39.5982V28.9218C230.279 29.0066 229.856 29.0913 229.432 29.176C229.008 29.2608 228.521 29.3455 227.97 29.4302C226.021 29.9386 224.454 30.8072 223.268 32.0358C222.124 33.2221 221.552 34.832 221.552 36.8656C221.552 38.6026 221.954 39.916 222.759 40.8057C223.564 41.653 224.539 42.0767 225.682 42.0767ZM246.46 60.252C244.766 60.252 243.41 59.8283 242.393 58.981C241.419 58.1337 240.931 57.0533 240.931 55.74C240.931 54.5537 241.355 53.6004 242.202 52.8802C243.05 52.16 244.003 51.7999 245.062 51.7999C246.121 51.7999 247.011 52.0117 247.731 52.4354C248.452 52.9014 249.087 53.5581 249.638 54.4054L250.083 54.9138C251.015 56.1848 251.947 56.1636 252.879 54.8503C253.26 54.2148 253.684 53.3674 254.15 52.3083C254.658 51.2915 255.23 49.9145 255.866 48.1775L243.537 18.6903C243.24 17.8853 242.923 17.2498 242.584 16.7838C242.245 16.2754 241.694 15.8517 240.931 15.5128L239.788 15.0679V14.4324H255.612V15.0044L254.341 15.5128C253.408 15.8094 252.921 16.2966 252.879 16.9744C252.879 17.6099 253.048 18.4149 253.387 19.3893L259.996 36.5478L266.288 19.1987C266.627 18.2243 266.754 17.4193 266.669 16.7838C266.584 16.1059 266.055 15.6399 265.08 15.3857L263.746 15.0679V14.4324H272.579V15.0679L271.181 15.5128C270.207 15.8094 269.529 16.233 269.148 16.7838C268.766 17.3346 268.406 18.0972 268.067 19.0716L257.836 46.9701C256.183 51.4186 254.531 54.7443 252.879 56.9474C251.227 59.1505 249.087 60.252 246.46 60.252ZM272.741 45.9533C271.216 45.9533 269.924 45.4237 268.865 44.3645C267.805 43.3053 267.276 42.0343 267.276 40.5515C267.276 39.0687 267.805 37.7765 268.865 36.6749C269.924 35.5734 271.216 35.0226 272.741 35.0226C274.266 35.0226 275.559 35.5734 276.618 36.6749C277.677 37.7765 278.207 39.0687 278.207 40.5515C278.207 42.0343 277.677 43.3053 276.618 44.3645C275.559 45.4237 274.266 45.9533 272.741 45.9533Z" fill="#3E1C09"/>
</svg>
