<svg width="69" height="45" viewBox="0 0 69 45" fill="none" xmlns="http://www.w3.org/2000/svg">
<path opacity="0.8" d="M0.5084 45V44.3645L2.09715 43.7925C2.94448 43.4536 3.60117 43.0511 4.0672 42.5851C4.53323 42.0767 4.91453 41.3776 5.2111 40.4879L18.3024 2.92989H23.7042L36.6048 40.7421C36.9437 41.6742 37.325 42.3944 37.7487 42.9028C38.1724 43.3689 38.8291 43.7714 39.7188 44.1103L40.4814 44.3645V45H24.3397V44.3645L25.2929 44.0467C26.1826 43.7078 26.7122 43.2418 26.8817 42.6486C27.0935 42.0131 27.0723 41.2717 26.8181 40.4244L23.8313 31.2732H9.72315L6.67275 40.2337C6.37618 41.1658 6.27027 41.9072 6.355 42.458C6.4821 43.0088 6.9905 43.4536 7.8802 43.7925L9.2783 44.3645V45H0.5084ZM10.168 30.0022H23.45L17.0314 10.2381L10.168 30.0022ZM38.981 45V44.3645L39.7436 44.1103C41.2688 43.6019 42.0314 42.5427 42.0314 40.9328V6.93355C42.0314 6.08621 41.8619 5.45071 41.523 5.02705C41.184 4.56101 40.5909 4.22208 39.7436 4.01025L38.9174 3.8196V3.18409L50.5471 0.451446L51.3097 1.0234L51.0555 9.9204V31.6545C51.0555 33.2221 51.0555 34.7896 51.0555 36.3572C51.0978 37.8824 51.119 39.4076 51.119 40.9328C51.119 41.7801 51.2885 42.4792 51.6274 43.0299C51.9664 43.5383 52.5383 43.9196 53.3433 44.1738L54.1694 44.3645V45H38.981ZM53.3517 45V44.3645L54.1143 44.1103C55.6395 43.6019 56.4021 42.5427 56.4021 40.9328V6.93355C56.4021 6.08621 56.2326 5.45071 55.8937 5.02705C55.5548 4.56101 54.9616 4.22208 54.1143 4.01025L53.2882 3.8196V3.18409L64.9178 0.451446L65.6804 1.0234L65.4262 9.9204V31.6545C65.4262 33.2221 65.4262 34.7896 65.4262 36.3572C65.4686 37.8824 65.4898 39.4076 65.4898 40.9328C65.4898 41.7801 65.6592 42.4792 65.9982 43.0299C66.3371 43.5383 66.909 43.9196 67.714 44.1738L68.5402 44.3645V45H53.3517Z" fill="#3E1C09"/>
</svg>
