<svg width="274" height="53" viewBox="0 0 274 53" fill="none" xmlns="http://www.w3.org/2000/svg">
<g opacity="0.2">
<g clip-path="url(#clip0_60_102)">
<path d="M3.6002 0.200806H124.4C126.278 0.200806 127.8 1.7288 127.8 3.61368V49.3864C127.8 51.2711 126.278 52.7993 124.4 52.7993H3.6002C1.72243 52.7993 0.200195 51.2711 0.200195 49.3864V3.61368C0.200195 1.7288 1.72243 0.200806 3.6002 0.200806Z" fill="#FFFBF6" stroke="black"/>
<path d="M69.1678 42.49C67.3118 42.49 65.7438 41.96 64.4638 40.9C63.2158 39.8399 62.5918 38.3142 62.5918 36.3227C62.5918 34.813 63.3598 33.4318 64.8958 32.179C66.4318 30.8942 68.8478 29.9305 72.1438 29.2881C72.6558 29.1918 73.2318 29.0954 73.8718 28.999C74.5118 28.8705 75.1838 28.7421 75.8878 28.6136V24.8072C75.8878 22.623 75.6158 21.0972 75.0718 20.2299C74.5598 19.3305 73.7438 18.8808 72.6238 18.8808C71.8558 18.8808 71.2478 19.1378 70.7998 19.6518C70.3518 20.1336 70.0638 20.9848 69.9358 22.2054L69.8398 22.7354C69.7758 24.1166 69.4398 25.1284 68.8318 25.7708C68.2238 26.4133 67.4718 26.7345 66.5758 26.7345C65.7438 26.7345 65.0558 26.4775 64.5118 25.9636C63.9678 25.4496 63.6958 24.759 63.6958 23.8918C63.6958 22.5748 64.1438 21.4666 65.0398 20.5672C65.9678 19.6678 67.1838 18.9933 68.6878 18.5436C70.1918 18.0939 71.8238 17.869 73.5838 17.869C76.4318 17.869 78.6238 18.5757 80.1598 19.989C81.7278 21.3702 82.5118 23.6348 82.5118 26.7827V37.4308C82.5118 38.8763 83.1838 39.599 84.5278 39.599H85.5838L86.0158 39.9845C85.4078 40.7554 84.7358 41.3497 83.9998 41.7673C83.2958 42.1848 82.2878 42.3936 80.9758 42.3936C79.5678 42.3936 78.4478 42.0724 77.6158 41.43C76.8158 40.7554 76.2878 39.8721 76.0318 38.7799C75.0718 39.8078 74.0798 40.6912 73.0558 41.43C72.0638 42.1366 70.7678 42.49 69.1678 42.49ZM72.0958 39.5508C72.7358 39.5508 73.3278 39.4063 73.8718 39.1172C74.4478 38.796 75.1198 38.3142 75.8878 37.6718V29.5772C75.5678 29.6415 75.2478 29.7057 74.9278 29.7699C74.6078 29.8342 74.2398 29.8984 73.8238 29.9627C72.3518 30.3481 71.1678 31.0066 70.2718 31.9381C69.4078 32.8375 68.9758 34.0581 68.9758 35.5999C68.9758 36.9169 69.2798 37.9127 69.8878 38.5872C70.4958 39.2296 71.2318 39.5508 72.0958 39.5508ZM86.615 41.7673V41.2854L87.815 40.8518C88.455 40.5948 88.951 40.2897 89.303 39.9363C89.655 39.5508 89.943 39.0208 90.167 38.3463L100.055 9.87085H104.135L113.879 38.539C114.135 39.2457 114.423 39.7918 114.743 40.1773C115.063 40.5306 115.559 40.8357 116.231 41.0927L116.807 41.2854V41.7673H104.615V41.2854L105.335 41.0445C106.007 40.7876 106.407 40.4342 106.535 39.9845C106.695 39.5027 106.679 38.9405 106.487 38.2981L104.231 31.3599H93.575L91.271 38.1536C91.047 38.8602 90.967 39.4224 91.031 39.8399C91.127 40.2576 91.511 40.5948 92.183 40.8518L93.239 41.2854V41.7673H86.615ZM93.911 30.3963H103.943L99.095 15.4118L93.911 30.3963Z" fill="#461F09"/>
</g>
</g>
<path opacity="0.7" d="M153.391 14.3695V18.5H151.419V14.3695H143.404L148.48 5.20415H150.658L146.569 12.5816H151.419V5.16305L153.391 5.24525V12.5816H156.042V14.3695H153.391ZM167.982 17.2464C166.954 18.2465 165.55 18.7466 163.769 18.7466C162.001 18.7466 160.59 18.2465 159.535 17.2464C158.494 16.2326 157.974 14.9243 157.974 13.3214V10.1567C157.974 8.5538 158.494 7.24545 159.535 6.23165C160.59 5.21785 162.001 4.71095 163.769 4.71095C165.55 4.71095 166.954 5.21785 167.982 6.23165C169.009 7.24545 169.523 8.5538 169.523 10.1567V13.3214C169.523 14.9243 169.009 16.2326 167.982 17.2464ZM167.55 10.1567C167.55 9.047 167.214 8.16335 166.543 7.50575C165.872 6.83445 164.94 6.4988 163.748 6.4988C162.543 6.4988 161.604 6.83445 160.933 7.50575C160.275 8.17705 159.946 9.0607 159.946 10.1567V13.3214C159.946 14.4037 160.282 15.2805 160.953 15.9518C161.625 16.6231 162.556 16.9587 163.748 16.9587C164.954 16.9587 165.885 16.63 166.543 15.9724C167.214 15.3011 167.55 14.4174 167.55 13.3214V10.1567ZM180.887 14.3695V18.5H178.914V14.3695H170.899L175.975 5.20415H178.153L174.064 12.5816H178.914V5.16305L180.887 5.24525V12.5816H183.538V14.3695H180.887Z" fill="black"/>
<path opacity="0.3" d="M155.796 48.5L146.384 37.6907V48.5H144.411V34.5671H146.178C147.37 35.9919 148.953 37.814 150.925 40.0334C153.309 42.7049 154.871 44.4654 155.611 45.3148V34.5671H157.584V48.5H155.796ZM173.236 46.7327C171.825 48.0068 169.914 48.6438 167.503 48.6438C165.078 48.6438 163.16 48.0137 161.749 46.7533C160.351 45.4792 159.653 43.7461 159.653 41.5541C159.653 39.3621 160.372 37.6496 161.81 36.4166C163.194 35.2247 165.092 34.6288 167.503 34.6288C169.914 34.6288 171.818 35.2247 173.216 36.4166C174.654 37.6496 175.373 39.3621 175.373 41.5541C175.373 43.7324 174.661 45.4586 173.236 46.7327ZM171.859 37.7524C170.832 36.8619 169.38 36.4166 167.503 36.4166C165.626 36.4166 164.181 36.8619 163.167 37.7524C162.153 38.6428 161.646 39.9101 161.646 41.5541C161.646 43.1981 162.16 44.4927 163.187 45.4381C164.215 46.3833 165.653 46.856 167.503 46.856C169.38 46.856 170.832 46.3902 171.859 45.4586C172.887 44.5133 173.401 43.2118 173.401 41.5541C173.401 39.8964 172.887 38.6292 171.859 37.7524ZM183.611 36.355V48.5H181.638V36.355H176.295V34.5671H188.933V36.355H183.611ZM201.334 36.355V40.3622H208.896V42.15H201.334V48.5H199.381V34.5671H210.17V36.355H201.334ZM224.614 46.7327C223.203 48.0068 221.292 48.6438 218.881 48.6438C216.456 48.6438 214.538 48.0137 213.127 46.7533C211.73 45.4792 211.031 43.7461 211.031 41.5541C211.031 39.3621 211.75 37.6496 213.189 36.4166C214.572 35.2247 216.47 34.6288 218.881 34.6288C221.292 34.6288 223.196 35.2247 224.594 36.4166C226.032 37.6496 226.752 39.3621 226.752 41.5541C226.752 43.7324 226.039 45.4586 224.614 46.7327ZM223.238 37.7524C222.21 36.8619 220.758 36.4166 218.881 36.4166C217.004 36.4166 215.559 36.8619 214.545 37.7524C213.531 38.6428 213.024 39.9101 213.024 41.5541C213.024 43.1981 213.538 44.4927 214.565 45.4381C215.593 46.3833 217.031 46.856 218.881 46.856C220.758 46.856 222.21 46.3902 223.238 45.4586C224.265 44.5133 224.779 43.2118 224.779 41.5541C224.779 39.8964 224.265 38.6292 223.238 37.7524ZM239.9 47.3903C238.859 48.226 237.297 48.6438 235.215 48.6438C230.94 48.6438 228.803 46.8081 228.803 43.1365V34.5671H230.776V43.1365C230.776 44.3968 231.125 45.3353 231.824 45.9518C232.537 46.5546 233.667 46.856 235.215 46.856C236.749 46.856 237.88 46.5477 238.606 45.9313C239.304 45.3558 239.654 44.4448 239.654 43.1981V34.5671H241.626V43.1776C241.626 45.0682 241.051 46.4724 239.9 47.3903ZM255.581 48.5L246.169 37.6907V48.5H244.196V34.5671H245.964C247.156 35.9919 248.738 37.814 250.711 40.0334C253.095 42.7049 254.656 44.4654 255.396 45.3148V34.5671H257.369V48.5H255.581ZM271.049 46.7533C269.61 47.9178 267.658 48.5 265.192 48.5H259.911V34.5671H265.973C268.398 34.5671 270.247 35.1973 271.522 36.4577C272.755 37.677 273.371 39.3758 273.371 41.5541C273.371 43.7872 272.597 45.5202 271.049 46.7533ZM270.104 37.7112C269.199 36.807 267.816 36.355 265.953 36.355H261.884V46.7121H265.254C267.227 46.7121 268.74 46.2806 269.795 45.4175C270.864 44.5407 271.398 43.2529 271.398 41.5541C271.398 39.8553 270.967 38.5743 270.104 37.7112Z" fill="black"/>
<defs>
<clipPath id="clip0_60_102">
<rect width="128" height="53" rx="4" fill="white"/>
</clipPath>
</defs>
</svg>
