<svg width="308" height="53" viewBox="0 0 308 53" fill="none" xmlns="http://www.w3.org/2000/svg">
<g opacity="0.2">
<g clip-path="url(#clip0_215_4)">
<path d="M4.1002 0.200745H124.9C126.778 0.200745 128.3 1.72874 128.3 3.61362V49.3864C128.3 51.2711 126.778 52.7992 124.9 52.7992H4.1002C2.22243 52.7992 0.700195 51.2711 0.700195 49.3864V3.61362C0.700195 1.72874 2.22243 0.200745 4.1002 0.200745Z" fill="#FFFBF6" stroke="black"/>
<path d="M69.6678 42.4899C67.8118 42.4899 66.2438 41.9599 64.9638 40.8999C63.7158 39.8399 63.0918 38.3141 63.0918 36.3226C63.0918 34.8129 63.8598 33.4317 65.3958 32.179C66.9318 30.8941 69.3478 29.9305 72.6438 29.2881C73.1558 29.1917 73.7318 29.0953 74.3718 28.999C75.0118 28.8705 75.6838 28.742 76.3878 28.6135V24.8072C76.3878 22.6229 76.1158 21.0972 75.5718 20.2299C75.0598 19.3305 74.2438 18.8808 73.1238 18.8808C72.3558 18.8808 71.7478 19.1378 71.2998 19.6517C70.8518 20.1335 70.5638 20.9847 70.4358 22.2053L70.3398 22.7353C70.2758 24.1165 69.9398 25.1284 69.3318 25.7708C68.7238 26.4132 67.9718 26.7344 67.0758 26.7344C66.2438 26.7344 65.5558 26.4775 65.0118 25.9635C64.4678 25.4496 64.1958 24.759 64.1958 23.8917C64.1958 22.5747 64.6438 21.4665 65.5398 20.5672C66.4678 19.6678 67.6838 18.9932 69.1878 18.5435C70.6918 18.0938 72.3238 17.869 74.0838 17.869C76.9318 17.869 79.1238 18.5756 80.6598 19.989C82.2278 21.3702 83.0118 23.6347 83.0118 26.7826V37.4308C83.0118 38.8762 83.6838 39.599 85.0278 39.599H86.0838L86.5158 39.9844C85.9078 40.7554 85.2358 41.3496 84.4998 41.7672C83.7958 42.1848 82.7878 42.3936 81.4758 42.3936C80.0678 42.3936 78.9478 42.0723 78.1158 41.4299C77.3158 40.7554 76.7878 39.872 76.5318 38.7799C75.5718 39.8078 74.5798 40.6911 73.5558 41.4299C72.5638 42.1366 71.2678 42.4899 69.6678 42.4899ZM72.5958 39.5508C73.2358 39.5508 73.8278 39.4062 74.3718 39.1172C74.9478 38.7959 75.6198 38.3141 76.3878 37.6717V29.5772C76.0678 29.6414 75.7478 29.7056 75.4278 29.7699C75.1078 29.8341 74.7398 29.8984 74.3238 29.9626C72.8518 30.3481 71.6678 31.0065 70.7718 31.9381C69.9078 32.8375 69.4758 34.0581 69.4758 35.5999C69.4758 36.9169 69.7798 37.9126 70.3878 38.5872C70.9958 39.2296 71.7318 39.5508 72.5958 39.5508ZM87.115 41.7672V41.2854L88.315 40.8517C88.955 40.5948 89.451 40.2896 89.803 39.9362C90.155 39.5508 90.443 39.0208 90.667 38.3462L100.555 9.87079H104.635L114.379 38.539C114.635 39.2456 114.923 39.7917 115.243 40.1772C115.563 40.5305 116.059 40.8357 116.731 41.0926L117.307 41.2854V41.7672H105.115V41.2854L105.835 41.0445C106.507 40.7875 106.907 40.4342 107.035 39.9844C107.195 39.5026 107.179 38.9405 106.987 38.2981L104.731 31.3599H94.075L91.771 38.1535C91.547 38.8602 91.467 39.4223 91.531 39.8399C91.627 40.2575 92.011 40.5948 92.683 40.8517L93.739 41.2854V41.7672H87.115ZM94.411 30.3962H104.443L99.595 15.4117L94.411 30.3962Z" fill="#461F09"/>
</g>
</g>
<path opacity="0.7" d="M144.911 18.5V4.5671H146.884V18.5H144.911ZM160.792 18.5L151.38 7.6907V18.5H149.407V4.5671H151.174C152.366 5.9919 153.949 7.814 155.921 10.0334C158.305 12.7049 159.867 14.4654 160.607 15.3148V4.5671H162.58V18.5H160.792ZM184.613 11.9651C183.6 12.5268 182.339 12.8077 180.832 12.8077H176.106V18.5H174.133V4.5671H181.058C184.757 4.5671 186.607 5.95765 186.607 8.73875C186.607 10.1635 185.942 11.239 184.613 11.9651ZM181.182 6.35495H176.106V11.0198H181.202C182.189 11.0198 182.99 10.828 183.606 10.4444C184.278 10.0334 184.613 9.4717 184.613 8.7593C184.613 7.1564 183.469 6.35495 181.182 6.35495ZM199.37 11.6979C200.439 12.3692 200.973 13.3831 200.973 14.7393V18.5H199V14.801C199 13.3762 197.877 12.6638 195.63 12.6638H190.616V18.5H188.643V4.5671H195.815C199.391 4.5671 201.179 5.8549 201.179 8.4305C201.179 9.8964 200.576 10.9855 199.37 11.6979ZM195.856 6.35495H190.616V10.8554H195.527C196.623 10.8554 197.493 10.6705 198.137 10.3005C198.85 9.88955 199.206 9.28675 199.206 8.49215C199.206 7.06735 198.089 6.35495 195.856 6.35495ZM216.686 16.7327C215.275 18.0068 213.363 18.6438 210.952 18.6438C208.527 18.6438 206.609 18.0137 205.198 16.7533C203.801 15.4792 203.102 13.7461 203.102 11.5541C203.102 9.3621 203.821 7.6496 205.26 6.4166C206.644 5.2247 208.541 4.62875 210.952 4.62875C213.363 4.62875 215.268 5.2247 216.665 6.4166C218.104 7.6496 218.823 9.3621 218.823 11.5541C218.823 13.7324 218.111 15.4586 216.686 16.7327ZM215.309 7.75235C214.281 6.86185 212.829 6.4166 210.952 6.4166C209.075 6.4166 207.63 6.86185 206.616 7.75235C205.602 8.64285 205.096 9.9101 205.096 11.5541C205.096 13.1981 205.609 14.4927 206.637 15.4381C207.664 16.3833 209.103 16.856 210.952 16.856C212.829 16.856 214.281 16.3902 215.309 15.4586C216.336 14.5133 216.85 13.2118 216.85 11.5541C216.85 9.8964 216.336 8.62915 215.309 7.75235ZM233.801 13.0337H227.841V11.2253H235.691C235.773 11.9514 235.814 12.4514 235.814 12.7254C235.814 14.6297 235.054 16.1231 233.533 17.2054C232.177 18.1644 230.499 18.6438 228.499 18.6438C226.06 18.6438 224.115 18.0411 222.662 16.8355C221.142 15.5888 220.381 13.8352 220.381 11.5747C220.381 9.38265 221.107 7.64275 222.56 6.35495C224.012 5.06715 225.944 4.42325 228.355 4.42325C230.149 4.42325 231.65 4.76575 232.855 5.45075C234.266 6.24535 235.218 7.7318 235.712 9.9101H233.698C233.383 8.6086 232.8 7.67015 231.951 7.09475C231.115 6.50565 229.923 6.2111 228.375 6.2111C226.485 6.2111 225.012 6.68375 223.957 7.62905C222.902 8.57435 222.375 9.8827 222.375 11.5541C222.375 13.2529 222.909 14.5612 223.978 15.4792C225.046 16.3971 226.553 16.856 228.499 16.856C229.978 16.856 231.225 16.5066 232.239 15.8079C233.266 15.1092 233.787 14.1845 233.801 13.0337ZM248.921 11.6979C249.99 12.3692 250.524 13.3831 250.524 14.7393V18.5H248.552V14.801C248.552 13.3762 247.428 12.6638 245.181 12.6638H240.167V18.5H238.194V4.5671H245.366C248.942 4.5671 250.73 5.8549 250.73 8.4305C250.73 9.8964 250.127 10.9855 248.921 11.6979ZM245.407 6.35495H240.167V10.8554H245.079C246.175 10.8554 247.045 10.6705 247.688 10.3005C248.401 9.88955 248.757 9.28675 248.757 8.49215C248.757 7.06735 247.64 6.35495 245.407 6.35495ZM253.126 18.5V4.5671H264.655V6.35495H255.078V10.3622H263.565V12.15H255.078V16.7121H264.757V18.5H253.126ZM272.843 18.6438C270.98 18.6438 269.459 18.3288 268.281 17.6986C266.774 16.8765 266.02 15.5887 266.02 13.8351V12.9309H268.014V13.7735C268.014 15.8285 269.63 16.856 272.863 16.856C274.042 16.856 275.001 16.6916 275.74 16.3628C276.617 15.9929 277.056 15.438 277.056 14.6983C277.056 14.164 276.919 13.7735 276.645 13.5269C276.371 13.2803 275.884 13.0611 275.185 12.8693C274.774 12.7597 273.809 12.5542 272.288 12.2528C270.493 11.8966 269.267 11.5609 268.609 11.2458C267.198 10.5746 266.493 9.56075 266.493 8.20445C266.493 5.68365 268.479 4.42325 272.452 4.42325C276.59 4.42325 278.686 6.1152 278.741 9.4991H276.809C276.713 8.0469 276.288 7.129 275.535 6.7454C274.864 6.3892 273.836 6.2111 272.452 6.2111C269.795 6.2111 268.466 6.87555 268.466 8.20445C268.466 8.83465 268.781 9.3073 269.411 9.6224C269.932 9.869 270.843 10.1019 272.144 10.3211C274.692 10.7458 276.405 11.2047 277.282 11.6979C278.446 12.3555 279.028 13.3693 279.028 14.7393C279.028 16.123 278.295 17.1574 276.829 17.8424C275.72 18.3767 274.391 18.6438 272.843 18.6438ZM287.774 18.6438C285.911 18.6438 284.391 18.3288 283.212 17.6986C281.705 16.8765 280.952 15.5887 280.952 13.8351V12.9309H282.945V13.7735C282.945 15.8285 284.562 16.856 287.795 16.856C288.973 16.856 289.932 16.6916 290.672 16.3628C291.549 15.9929 291.987 15.438 291.987 14.6983C291.987 14.164 291.85 13.7735 291.576 13.5269C291.302 13.2803 290.816 13.0611 290.117 12.8693C289.706 12.7597 288.74 12.5542 287.22 12.2528C285.425 11.8966 284.199 11.5609 283.541 11.2458C282.13 10.5746 281.424 9.56075 281.424 8.20445C281.424 5.68365 283.411 4.42325 287.384 4.42325C291.521 4.42325 293.617 6.1152 293.672 9.4991H291.741C291.645 8.0469 291.22 7.129 290.466 6.7454C289.795 6.3892 288.768 6.2111 287.384 6.2111C284.726 6.2111 283.397 6.87555 283.397 8.20445C283.397 8.83465 283.712 9.3073 284.343 9.6224C284.863 9.869 285.774 10.1019 287.076 10.3211C289.624 10.7458 291.336 11.2047 292.213 11.6979C293.378 12.3555 293.96 13.3693 293.96 14.7393C293.96 16.123 293.227 17.1574 291.761 17.8424C290.651 18.3767 289.323 18.6438 287.774 18.6438Z" fill="black"/>
<path opacity="0.3" d="M157.652 38.4921C157.049 37.6701 156.364 37.0879 155.597 36.7454C154.843 36.3892 153.898 36.2111 152.761 36.2111C150.912 36.2111 149.446 36.6974 148.363 37.6702C147.295 38.6292 146.761 39.9238 146.761 41.5541C146.761 43.1707 147.267 44.4585 148.281 45.4175C149.309 46.3765 150.727 46.856 152.535 46.856C153.617 46.856 154.542 46.6779 155.309 46.3217C156.09 45.9655 156.816 45.3764 157.488 44.5544L159.173 45.5613C157.474 47.6163 155.268 48.6438 152.556 48.6438C150.199 48.6438 148.315 48.0137 146.904 46.7533C145.493 45.4792 144.788 43.7735 144.788 41.6363C144.788 39.4306 145.514 37.677 146.966 36.3755C148.418 35.074 150.35 34.4232 152.761 34.4232C155.583 34.4232 157.768 35.4439 159.317 37.4852L157.652 38.4921ZM174.539 46.7327C173.128 48.0068 171.217 48.6438 168.806 48.6438C166.381 48.6438 164.463 48.0137 163.052 46.7533C161.654 45.4792 160.955 43.7461 160.955 41.5541C160.955 39.3621 161.675 37.6496 163.113 36.4166C164.497 35.2247 166.394 34.6288 168.806 34.6288C171.217 34.6288 173.121 35.2247 174.518 36.4166C175.957 37.6496 176.676 39.3621 176.676 41.5541C176.676 43.7324 175.964 45.4586 174.539 46.7327ZM173.162 37.7524C172.135 36.8619 170.682 36.4166 168.806 36.4166C166.929 36.4166 165.483 36.8619 164.469 37.7524C163.456 38.6428 162.949 39.9101 162.949 41.5541C162.949 43.1981 163.463 44.4927 164.49 45.4381C165.518 46.3833 166.956 46.856 168.806 46.856C170.682 46.856 172.135 46.3902 173.162 45.4586C174.19 44.5133 174.703 43.2118 174.703 41.5541C174.703 39.8964 174.19 38.6292 173.162 37.7524ZM192.763 48.5V38.6771L187.441 48.5H186.023L180.701 38.6771V48.5H178.728V34.5671H180.659L186.722 45.7669L192.805 34.5671H194.736V48.5H192.763ZM197.312 48.5V34.5671H199.285V48.5H197.312ZM213.193 48.5L203.781 37.6907V48.5H201.808V34.5671H203.575C204.767 35.9919 206.35 37.814 208.322 40.0334C210.706 42.7049 212.268 44.4654 213.008 45.3148V34.5671H214.981V48.5H213.193ZM230.448 43.0337H224.489V41.2253H232.339C232.421 41.9514 232.462 42.4514 232.462 42.7254C232.462 44.6297 231.702 46.1231 230.181 47.2054C228.825 48.1644 227.147 48.6438 225.146 48.6438C222.708 48.6438 220.762 48.0411 219.31 46.8355C217.789 45.5888 217.029 43.8352 217.029 41.5747C217.029 39.3827 217.755 37.6428 219.207 36.355C220.66 35.0671 222.591 34.4232 225.003 34.4232C226.797 34.4232 228.297 34.7657 229.503 35.4507C230.914 36.2453 231.866 37.7318 232.359 39.9101H230.346C230.03 38.6086 229.448 37.6702 228.599 37.0948C227.763 36.5056 226.571 36.2111 225.023 36.2111C223.132 36.2111 221.66 36.6837 220.605 37.629C219.55 38.5743 219.022 39.8827 219.022 41.5541C219.022 43.2529 219.557 44.5612 220.625 45.4792C221.694 46.3971 223.201 46.856 225.146 46.856C226.626 46.856 227.873 46.5066 228.886 45.8079C229.914 45.1092 230.435 44.1845 230.448 43.0337ZM250.224 48.6438C248.361 48.6438 246.84 48.3288 245.662 47.6986C244.155 46.8765 243.402 45.5887 243.402 43.8351V42.9309H245.395V43.7735C245.395 45.8285 247.011 46.856 250.245 46.856C251.423 46.856 252.382 46.6916 253.122 46.3628C253.998 45.9929 254.437 45.438 254.437 44.6983C254.437 44.164 254.3 43.7735 254.026 43.5269C253.752 43.2803 253.266 43.0611 252.567 42.8693C252.156 42.7597 251.19 42.5542 249.669 42.2528C247.875 41.8966 246.648 41.5609 245.991 41.2458C244.58 40.5746 243.874 39.5607 243.874 38.2044C243.874 35.6836 245.861 34.4232 249.834 34.4232C253.971 34.4232 256.067 36.1152 256.122 39.4991H254.19C254.094 38.0469 253.67 37.129 252.916 36.7454C252.245 36.3892 251.217 36.2111 249.834 36.2111C247.176 36.2111 245.847 36.8755 245.847 38.2044C245.847 38.8346 246.162 39.3073 246.792 39.6224C247.313 39.869 248.224 40.1019 249.525 40.3211C252.074 40.7458 253.786 41.2047 254.663 41.6979C255.827 42.3555 256.41 43.3693 256.41 44.7393C256.41 46.123 255.677 47.1574 254.211 47.8424C253.101 48.3767 251.772 48.6438 250.224 48.6438ZM271.896 46.7327C270.485 48.0068 268.574 48.6438 266.163 48.6438C263.738 48.6438 261.82 48.0137 260.409 46.7533C259.011 45.4792 258.313 43.7461 258.313 41.5541C258.313 39.3621 259.032 37.6496 260.47 36.4166C261.854 35.2247 263.752 34.6288 266.163 34.6288C268.574 34.6288 270.478 35.2247 271.876 36.4166C273.314 37.6496 274.033 39.3621 274.033 41.5541C274.033 43.7324 273.321 45.4586 271.896 46.7327ZM270.519 37.7524C269.492 36.8619 268.04 36.4166 266.163 36.4166C264.286 36.4166 262.84 36.8619 261.827 37.7524C260.813 38.6428 260.306 39.9101 260.306 41.5541C260.306 43.1981 260.82 44.4927 261.847 45.4381C262.875 46.3833 264.313 46.856 266.163 46.856C268.04 46.856 269.492 46.3902 270.519 45.4586C271.547 44.5133 272.061 43.2118 272.061 41.5541C272.061 39.8964 271.547 38.6292 270.519 37.7524ZM289.196 46.7327C287.785 48.0068 285.874 48.6438 283.462 48.6438C281.038 48.6438 279.12 48.0137 277.708 46.7533C276.311 45.4792 275.612 43.7461 275.612 41.5541C275.612 39.3621 276.332 37.6496 277.77 36.4166C279.154 35.2247 281.051 34.6288 283.462 34.6288C285.874 34.6288 287.778 35.2247 289.175 36.4166C290.614 37.6496 291.333 39.3621 291.333 41.5541C291.333 43.7324 290.621 45.4586 289.196 46.7327ZM287.819 37.7524C286.792 36.8619 285.339 36.4166 283.462 36.4166C281.586 36.4166 280.14 36.8619 279.126 37.7524C278.113 38.6428 277.606 39.9101 277.606 41.5541C277.606 43.1981 278.119 44.4927 279.147 45.4381C280.174 46.3833 281.613 46.856 283.462 46.856C285.339 46.856 286.792 46.3902 287.819 45.4586C288.847 44.5133 289.36 43.2118 289.36 41.5541C289.36 39.8964 288.847 38.6292 287.819 37.7524ZM304.769 48.5L295.358 37.6907V48.5H293.385V34.5671H295.152C296.344 35.9919 297.926 37.814 299.899 40.0334C302.283 42.7049 303.845 44.4654 304.584 45.3148V34.5671H306.557V48.5H304.769Z" fill="black"/>
<defs>
<clipPath id="clip0_215_4">
<rect x="0.5" width="128" height="53" rx="4" fill="white"/>
</clipPath>
</defs>
</svg>
