<svg width="387" height="70" viewBox="0 0 387 70" fill="none" xmlns="http://www.w3.org/2000/svg">
<path opacity="0.9" d="M0.1241 68V67.0345L2.0551 66.2621C3.34243 65.8115 4.1792 65.2 4.5654 64.4276C5.01597 63.6552 5.24125 62.6576 5.24125 61.4346V10.9389C5.24125 9.65161 5.01597 8.62175 4.5654 7.84935C4.1792 7.07694 3.34243 6.46546 2.0551 6.0149L0.1241 5.24249V4.277H24.6478V5.24249L23.0065 5.91835C21.7835 6.36891 20.9467 6.9804 20.4962 7.7528C20.0456 8.46083 19.8203 9.45851 19.8203 10.7458V34.2075H42.8958V10.7458C42.8958 9.45851 42.6705 8.46083 42.2199 7.7528C41.8337 6.9804 40.9969 6.36891 39.7096 5.91835L37.9717 5.24249V4.277H62.592V5.24249L60.661 6.0149C59.438 6.46546 58.6012 7.07694 58.1507 7.84935C57.7001 8.62175 57.4748 9.65161 57.4748 10.9389V61.4346C57.4748 62.6576 57.7001 63.6552 58.1507 64.4276C58.6012 65.2 59.438 65.8115 60.661 66.2621L62.592 67.0345V68H37.9717V67.0345L39.7096 66.4552C40.9969 65.9403 41.8337 65.3288 42.2199 64.6207C42.6705 63.8483 42.8958 62.8185 42.8958 61.5311V36.1385H19.8203V61.5311C19.8203 63.9127 20.8824 65.5541 23.0065 66.4552L24.6478 67.0345V68H0.1241ZM73.1038 69.4483C69.3706 69.4483 66.2166 68.3862 63.6419 66.2621C61.1316 64.138 59.8765 61.0806 59.8765 57.0898C59.8765 54.0646 61.4213 51.2968 64.5109 48.7865C67.6005 46.2119 72.4602 44.2809 79.0899 42.9935C80.1198 42.8004 81.2784 42.6073 82.5657 42.4142C83.8531 42.1568 85.2048 41.8993 86.6208 41.6418V34.0144C86.6208 29.6375 86.0737 26.58 84.9795 24.8421C83.9496 23.0399 82.3083 22.1387 80.0554 22.1387C78.5106 22.1387 77.2877 22.6537 76.3865 23.6835C75.4854 24.649 74.9061 26.3548 74.6486 28.8007L74.4555 29.8627C74.3268 32.6305 73.6509 34.6581 72.428 35.9454C71.205 37.2327 69.6924 37.8764 67.8901 37.8764C66.2166 37.8764 64.8327 37.3615 63.7385 36.3316C62.6442 35.3017 62.0971 33.9178 62.0971 32.1799C62.0971 29.5409 62.9983 27.3203 64.8005 25.518C66.6672 23.7157 69.1131 22.364 72.1383 21.4629C75.1636 20.5618 78.4463 20.1112 81.9864 20.1112C87.7151 20.1112 92.1242 21.5273 95.2138 24.3594C98.3678 27.1272 99.9447 31.665 99.9447 37.9729V59.3105C99.9447 62.207 101.296 63.6552 104 63.6552H106.124L106.993 64.4276C105.77 65.9724 104.418 67.1632 102.938 68C101.522 68.8368 99.4942 69.2552 96.8551 69.2552C94.023 69.2552 91.7702 68.6115 90.0966 67.3241C88.4875 65.9724 87.4254 64.2024 86.9105 62.0139C84.9795 64.0736 82.9841 65.8437 80.9244 67.3241C78.929 68.7402 76.3222 69.4483 73.1038 69.4483ZM78.9934 63.5587C80.2807 63.5587 81.4715 63.269 82.5657 62.6897C83.7243 62.0461 85.076 61.0806 86.6208 59.7932V43.5728C85.9772 43.7016 85.3335 43.8303 84.6898 43.959C84.0462 44.0878 83.3059 44.2165 82.4692 44.3452C79.5083 45.1176 77.1267 46.4372 75.3245 48.3038C73.5866 50.1061 72.7176 52.552 72.7176 55.6416C72.7176 58.2806 73.3291 60.276 74.5521 61.6277C75.775 62.915 77.2555 63.5587 78.9934 63.5587ZM102.998 68V67.0345L104.35 66.6483C106.603 66.0046 107.729 64.4276 107.729 61.9173V31.6972C107.729 30.2811 107.504 29.2513 107.053 28.6076C106.603 27.8996 105.734 27.4168 104.446 27.1593L102.998 26.7731V25.8076L119.508 20.2077L120.474 21.1732L121.246 26.9662C123.499 24.9709 126.041 23.3295 128.874 22.0422C131.706 20.7549 134.506 20.1112 137.273 20.1112C141.522 20.1112 144.772 21.2698 147.025 23.587C149.342 25.9042 150.501 29.4444 150.501 34.2075V62.0139C150.501 64.5242 151.724 66.1012 154.17 66.7448L155.039 67.0345V68H132.253V67.0345L133.508 66.6483C135.761 65.9403 136.887 64.3633 136.887 61.9173V31.1179C136.887 26.9984 134.827 24.9387 130.708 24.9387C127.876 24.9387 124.786 26.3548 121.439 29.1869V62.0139C121.439 64.5242 122.566 66.1012 124.818 66.7448L125.687 67.0345V68H102.998ZM173.492 69.4483C169.694 69.4483 166.283 68.6115 163.257 66.9379C160.232 65.2 157.818 62.561 156.016 59.0208C154.278 55.4163 153.409 50.8141 153.409 45.2142C153.409 39.5499 154.407 34.8833 156.402 31.2144C158.398 27.4812 161.037 24.7134 164.319 22.9111C167.602 21.0445 171.175 20.1112 175.037 20.1112C177.289 20.1112 179.446 20.3365 181.505 20.787C183.565 21.2376 185.4 21.9135 187.009 22.8146V10.2631C187.009 8.9114 186.783 7.91371 186.333 7.27005C185.947 6.62638 185.078 6.17581 183.726 5.91835L181.892 5.53215V4.56665L199.464 0.318444L200.526 1.18739L200.14 14.7044V61.9173C200.14 63.2047 200.365 64.2667 200.815 65.1035C201.266 65.8759 202.103 66.423 203.326 66.7448L204.195 67.0345V68L187.685 69.0621L186.816 65.5862C185.078 66.7448 183.082 67.6782 180.83 68.3862C178.641 69.0942 176.195 69.4483 173.492 69.4483ZM179.092 65.8759C181.795 65.8759 184.273 65.0713 186.526 63.4621V25.1318C184.144 23.587 181.698 22.8146 179.188 22.8146C176.099 22.8146 173.46 24.6169 171.271 28.2214C169.083 31.7616 167.988 37.3615 167.988 45.0211C167.988 52.6807 169.018 58.0875 171.078 61.2415C173.138 64.3311 175.809 65.8759 179.092 65.8759ZM202.961 68V67.0345L204.119 66.6483C206.436 65.8759 207.595 64.2667 207.595 61.8208V10.2631C207.595 8.9114 207.37 7.91371 206.919 7.27005C206.469 6.62638 205.6 6.14363 204.312 5.82179L202.864 5.4356V4.47009L219.857 0.318444L221.402 1.18739L221.015 14.8009V26.8697C223.268 25.0031 225.682 23.4261 228.257 22.1387C230.896 20.787 233.792 20.1112 236.946 20.1112C241.13 20.1112 244.445 21.302 246.891 23.6835C249.401 26.0651 250.656 29.734 250.656 34.6902V61.9173C250.656 63.2047 250.914 64.2345 251.429 65.0069C251.944 65.7793 252.845 66.3586 254.132 66.7448L254.904 67.0345V68H232.312V67.0345L233.47 66.7448C235.788 65.9724 236.946 64.3311 236.946 61.8208V31.5041C236.946 28.9294 236.496 27.1593 235.594 26.1938C234.758 25.2283 233.245 24.7456 231.057 24.7456C229.641 24.7456 228.096 25.0352 226.422 25.6145C224.749 26.1295 223.043 27.0628 221.305 28.4145V62.0139C221.305 64.5242 222.464 66.1334 224.781 66.8414L225.553 67.0345V68H202.961ZM277.119 20.1112C281.302 20.1112 284.875 20.9801 287.836 22.718C290.796 24.3916 293.049 26.7088 294.594 29.6696C296.203 32.5661 297.008 35.881 297.008 39.6143C297.008 40.3223 296.976 41.0625 296.911 41.8349C296.847 42.543 296.718 43.1866 296.525 43.7659H267.753C267.818 50.7175 269.04 55.7381 271.422 58.8277C273.868 61.853 277.473 63.3656 282.236 63.3656C285.454 63.3656 288.061 62.8507 290.056 61.8208C292.052 60.7909 293.918 59.2783 295.656 57.2829L296.622 58.1519C294.626 61.6921 291.955 64.4598 288.608 66.4552C285.325 68.4506 281.367 69.4483 276.732 69.4483C272.162 69.4483 268.107 68.4828 264.567 66.5517C261.027 64.5564 258.259 61.7242 256.264 58.0553C254.268 54.3864 253.271 50.0095 253.271 44.9245C253.271 39.6465 254.429 35.173 256.746 31.5041C259.064 27.7708 262.025 24.9387 265.629 23.0077C269.298 21.0767 273.128 20.1112 277.119 20.1112ZM276.829 22.0422C274.962 22.0422 273.353 22.6215 272.001 23.7801C270.714 24.8743 269.684 26.8697 268.912 29.7662C268.204 32.5983 267.818 36.6212 267.753 41.8349H284.263C284.907 34.819 284.649 29.7662 283.491 26.6766C282.332 23.587 280.112 22.0422 276.829 22.0422ZM294.808 68V67.0345L295.966 66.6483C298.283 65.8759 299.442 64.2667 299.442 61.8208V10.1665C299.442 8.87921 299.184 7.91371 298.67 7.27005C298.155 6.56201 297.253 6.04708 295.966 5.72524L294.711 5.4356V4.47009L312.38 0.318444L313.538 1.18739L313.152 14.7044V47.7245C313.152 50.1061 313.152 52.4876 313.152 54.8692C313.216 57.1864 313.249 59.5036 313.249 61.8208C313.249 63.1081 313.506 64.1702 314.021 65.0069C314.536 65.7793 315.405 66.3586 316.628 66.7448L317.883 67.0345V68H294.808ZM336.82 69.4483C333.022 69.4483 329.611 68.6115 326.585 66.9379C323.56 65.2 321.146 62.561 319.344 59.0208C317.606 55.4163 316.737 50.8141 316.737 45.2142C316.737 39.5499 317.735 34.8833 319.73 31.2144C321.726 27.4812 324.365 24.7134 327.647 22.9111C330.93 21.0445 334.502 20.1112 338.364 20.1112C340.617 20.1112 342.774 20.3365 344.833 20.787C346.893 21.2376 348.727 21.9135 350.337 22.8146V10.2631C350.337 8.9114 350.111 7.91371 349.661 7.27005C349.275 6.62638 348.406 6.17581 347.054 5.91835L345.219 5.53215V4.56665L362.792 0.318444L363.854 1.18739L363.467 14.7044V61.9173C363.467 63.2047 363.693 64.2667 364.143 65.1035C364.594 65.8759 365.431 66.423 366.654 66.7448L367.523 67.0345V68L351.012 69.0621L350.144 65.5862C348.406 66.7448 346.41 67.6782 344.157 68.3862C341.969 69.0942 339.523 69.4483 336.82 69.4483ZM342.42 65.8759C345.123 65.8759 347.601 65.0713 349.854 63.4621V25.1318C347.472 23.587 345.026 22.8146 342.516 22.8146C339.426 22.8146 336.787 24.6169 334.599 28.2214C332.41 31.7616 331.316 37.3615 331.316 45.0211C331.316 52.6807 332.346 58.0875 334.406 61.2415C336.466 64.3311 339.137 65.8759 342.42 65.8759ZM377.985 69.4483C375.667 69.4483 373.704 68.6437 372.095 67.0345C370.486 65.4253 369.681 63.4943 369.681 61.2415C369.681 58.9887 370.486 57.0255 372.095 55.3519C373.704 53.6784 375.667 52.8416 377.985 52.8416C380.302 52.8416 382.265 53.6784 383.874 55.3519C385.483 57.0255 386.288 58.9887 386.288 61.2415C386.288 63.4943 385.483 65.4253 383.874 67.0345C382.265 68.6437 380.302 69.4483 377.985 69.4483Z" fill="#361908"/>
</svg>
