<svg width="112" height="47" viewBox="0 0 112 47" fill="none" xmlns="http://www.w3.org/2000/svg">
<path d="M60.5221 37.6798C58.8981 37.6798 57.5261 37.2098 56.4061 36.2698C55.3141 35.3297 54.7681 33.9767 54.7681 32.2106C54.7681 30.8718 55.4401 29.647 56.7841 28.5361C58.1281 27.3967 60.2421 26.5421 63.1261 25.9725C63.5741 25.887 64.0781 25.8015 64.6381 25.7161C65.1981 25.6021 65.7861 25.4882 66.4021 25.3743V21.9988C66.4021 20.0618 66.1641 18.7088 65.6881 17.9397C65.2401 17.1421 64.5261 16.7434 63.5461 16.7434C62.8741 16.7434 62.3421 16.9712 61.9501 17.427C61.5581 17.8543 61.3061 18.6091 61.1941 19.6915L61.1101 20.1615C61.0541 21.3864 60.7601 22.2837 60.2281 22.8534C59.6961 23.4231 59.0381 23.7079 58.2541 23.7079C57.5261 23.7079 56.9241 23.48 56.4481 23.0243C55.9721 22.5685 55.7341 21.9561 55.7341 21.187C55.7341 20.0191 56.1261 19.0364 56.9101 18.2388C57.7221 17.4412 58.7861 16.8431 60.1021 16.4443C61.4181 16.0455 62.8461 15.8461 64.3861 15.8461C66.8781 15.8461 68.7961 16.4728 70.1401 17.7261C71.5121 18.9509 72.1981 20.9591 72.1981 23.7506V33.1934C72.1981 34.4752 72.7861 35.1161 73.9621 35.1161H74.8861L75.2641 35.4579C74.7321 36.1416 74.1441 36.6685 73.5001 37.0388C72.8841 37.4092 72.0021 37.5943 70.8541 37.5943C69.6221 37.5943 68.6421 37.3095 67.9141 36.7398C67.2141 36.1416 66.7521 35.3582 66.5281 34.3897C65.6881 35.3012 64.8201 36.0846 63.9241 36.7398C63.0561 37.3664 61.9221 37.6798 60.5221 37.6798ZM63.0841 35.0734C63.6441 35.0734 64.1621 34.9452 64.6381 34.6888C65.1421 34.404 65.7301 33.9767 66.4021 33.407V26.2288C66.1221 26.2858 65.8421 26.3428 65.5621 26.3997C65.2821 26.4567 64.9601 26.5137 64.5961 26.5706C63.3081 26.9124 62.2721 27.4964 61.4881 28.3224C60.7321 29.12 60.3541 30.2024 60.3541 31.5697C60.3541 32.7376 60.6201 33.6206 61.1521 34.2188C61.6841 34.7885 62.3281 35.0734 63.0841 35.0734ZM75.7884 37.0388V36.6116L76.8384 36.227C77.3984 35.9992 77.8324 35.7285 78.1404 35.4152C78.4484 35.0734 78.7004 34.6034 78.8964 34.0052L87.5484 8.75336H91.1184L99.6444 34.1761C99.8684 34.8028 100.12 35.287 100.4 35.6288C100.68 35.9422 101.114 36.2128 101.702 36.4407L102.206 36.6116V37.0388H91.5384V36.6116L92.1684 36.3979C92.7564 36.1701 93.1064 35.8567 93.2184 35.4579C93.3584 35.0306 93.3444 34.5321 93.1764 33.9625L91.2024 27.8097H81.8784L79.8624 33.8343C79.6664 34.4609 79.5964 34.9594 79.6524 35.3297C79.7364 35.7001 80.0724 35.9992 80.6604 36.227L81.5844 36.6116V37.0388H75.7884ZM82.1724 26.9552H90.9504L86.7084 13.667L82.1724 26.9552Z" fill="#461F09"/>
</svg>
