<svg width="83" height="46" viewBox="0 0 83 46" fill="none" xmlns="http://www.w3.org/2000/svg">
<path opacity="0.8" d="M13.3455 45.9533C10.634 45.9533 8.5157 45.2754 6.9905 43.9196C5.50767 42.5639 4.76625 40.4032 4.76625 37.4375V15.7034H0.3813V15.0679L1.9065 14.8137C3.21987 14.5172 4.34258 14.0935 5.27465 13.5427C6.24908 12.992 7.20233 12.2506 8.1344 11.3185L13.3455 5.53544H13.981L13.7904 14.4324H20.908V15.7034H13.7268V38.5814C13.7268 40.0643 14.0446 41.187 14.6801 41.9496C15.3579 42.7122 16.2053 43.0935 17.2221 43.0935C18.1118 43.0935 18.8955 42.8817 19.5734 42.458C20.2513 41.992 20.9291 41.3776 21.607 40.615L22.2425 41.2505C21.3952 42.691 20.2301 43.8349 18.7473 44.6822C17.2644 45.5296 15.4638 45.9533 13.3455 45.9533ZM20.6111 45V44.3645L21.3737 44.1103C22.8989 43.6019 23.6615 42.5427 23.6615 40.9328V6.9971C23.6615 6.1074 23.5132 5.45071 23.2166 5.02705C22.92 4.60338 22.3481 4.28563 21.5008 4.07379L20.5475 3.8196V3.18409L31.7323 0.451446L32.7491 1.0234L32.4949 9.98395V17.9277C33.9777 16.6991 35.5665 15.6611 37.2612 14.8137C38.9982 13.924 40.9047 13.4792 42.9807 13.4792C45.7345 13.4792 47.9164 14.263 49.5263 15.8305C51.1786 17.3981 52.0048 19.813 52.0048 23.0752V40.9963C52.0048 41.8437 52.1742 42.5215 52.5132 43.0299C52.8521 43.5383 53.4452 43.9196 54.2926 44.1738L54.801 44.3645V45H39.9303V44.3645L40.6929 44.1738C42.2181 43.6654 42.9807 42.5851 42.9807 40.9328V20.9781C42.9807 19.2834 42.6841 18.1183 42.091 17.4828C41.5402 16.8473 40.5446 16.5296 39.1041 16.5296C38.172 16.5296 37.1552 16.7202 36.0537 17.1015C34.9522 17.4405 33.8295 18.0548 32.6856 18.9445V41.0599C32.6856 42.7122 33.4482 43.7714 34.9734 44.2374L35.4818 44.3645V45H20.6111ZM69.4224 13.4792C72.1763 13.4792 74.5276 14.0511 76.4765 15.195C78.4253 16.2966 79.9082 17.8218 80.925 19.7706C81.9841 21.6771 82.5137 23.859 82.5137 26.3163C82.5137 26.7823 82.4925 27.2695 82.4502 27.7779C82.4078 28.244 82.3231 28.6676 82.196 29.0489H63.2581C63.3004 33.6245 64.1054 36.9291 65.673 38.9627C67.2829 40.954 69.6554 41.9496 72.7906 41.9496C74.9089 41.9496 76.6248 41.6107 77.9381 40.9328C79.2515 40.2549 80.4801 39.2593 81.624 37.9459L82.2595 38.5179C80.9462 40.8481 79.1879 42.6698 76.9849 43.9832C74.8242 45.2966 72.2186 45.9533 69.1682 45.9533C66.1602 45.9533 63.4911 45.3178 61.1609 44.0467C58.8308 42.7334 57.009 40.8692 55.6956 38.4543C54.3823 36.0394 53.7256 33.1585 53.7256 29.8115C53.7256 26.3375 54.4882 23.393 56.0134 20.9781C57.5386 18.5208 59.4874 16.6567 61.86 15.3857C64.2749 14.1147 66.7957 13.4792 69.4224 13.4792ZM69.2318 14.7502C68.0031 14.7502 66.944 15.1315 66.0543 15.8941C65.2069 16.6143 64.5291 17.9277 64.0207 19.8342C63.5546 21.6983 63.3004 24.3462 63.2581 27.7779H74.1251C74.5488 23.16 74.3793 19.8342 73.6167 17.8006C72.8541 15.767 71.3925 14.7502 69.2318 14.7502Z" fill="#3E1C09"/>
</svg>
