<svg width="112" height="48" viewBox="0 0 112 48" fill="none" xmlns="http://www.w3.org/2000/svg">
<path opacity="0.8" d="M14.2988 32.1907L4.51205 5.309C4.04602 3.95326 3.11395 3.00001 1.71585 2.44925L0.6355 2.06795V1.43245H16.2053V2.06795L15.252 2.32215C13.5997 2.83055 13.0489 3.84735 13.5997 5.37255L19.5099 23.3572L24.7845 9.3762L23.5771 5.75385C23.2805 4.82178 22.9627 4.12273 22.6238 3.6567C22.3272 3.1483 21.9248 2.78818 21.4164 2.57635L20.336 2.06795V1.43245H33.4909V2.06795L32.6012 2.44925C31.9657 2.70345 31.5844 3.04238 31.4573 3.46605C31.3302 3.88971 31.4149 4.52521 31.7115 5.37255L37.5581 23.0394L43.5953 5.49965C44.1884 3.88971 43.8707 2.87291 42.6421 2.44925L41.244 2.06795V1.43245H48.87V2.06795L47.3448 2.5128C46.6245 2.72463 46.0949 3.06356 45.756 3.5296C45.4594 3.95326 45.1841 4.5464 44.9299 5.309L35.7787 32.1907H32.5376L25.4836 11.4098L17.9847 32.1907H14.2988ZM54.8953 32.9533C52.438 32.9533 50.3621 32.2542 48.6674 30.8561C47.0151 29.458 46.1889 27.4456 46.1889 24.8188C46.1889 22.8276 47.2057 21.0058 49.2393 19.3535C51.2729 17.6589 54.4716 16.3879 58.8354 15.5405C59.5133 15.4134 60.2759 15.2863 61.1232 15.1592C61.9705 14.9898 62.8602 14.8203 63.7923 14.6508V9.6304C63.7923 6.74946 63.4322 4.73705 62.7119 3.59315C62.0341 2.40688 60.9537 1.81375 59.4709 1.81375C58.4541 1.81375 57.6491 2.15268 57.056 2.83055C56.4629 3.46605 56.0816 4.58876 55.9121 6.1987L55.785 6.89775C55.7003 8.71951 55.2554 10.0541 54.4504 10.9014C53.6455 11.7487 52.6499 12.1724 51.4636 12.1724C50.3621 12.1724 49.4512 11.8335 48.7309 11.1556C48.0107 10.4777 47.6506 9.56685 47.6506 8.42295C47.6506 6.68591 48.2437 5.22426 49.43 4.038C50.6586 2.85173 52.2686 1.96203 54.2598 1.3689C56.251 0.775764 58.4117 0.479197 60.7419 0.479197C64.5125 0.479197 67.4146 1.41126 69.4482 3.2754C71.5242 5.09716 72.5622 8.08401 72.5622 12.2359V26.2805C72.5622 28.187 73.4519 29.1402 75.2313 29.1402H76.6294L77.2013 29.6486C76.3964 30.6654 75.5067 31.4492 74.5322 32C73.6002 32.5508 72.2656 32.8262 70.5286 32.8262C68.6645 32.8262 67.1816 32.4025 66.0801 31.5551C65.0209 30.6654 64.3219 29.5004 63.9829 28.0599C62.7119 29.4156 61.3986 30.5807 60.0428 31.5551C58.7295 32.4872 57.0136 32.9533 54.8953 32.9533ZM58.7718 29.0767C59.6192 29.0767 60.403 28.886 61.1232 28.5047C61.8858 28.0811 62.7755 27.4456 63.7923 26.5982V15.9218C63.3686 16.0066 62.945 16.0913 62.5213 16.176C62.0976 16.2608 61.6104 16.3455 61.0596 16.4302C59.1108 16.9386 57.5432 17.8072 56.3569 19.0358C55.213 20.2221 54.6411 21.832 54.6411 23.8656C54.6411 25.6026 55.0436 26.916 55.8485 27.8057C56.6535 28.653 57.6279 29.0767 58.7718 29.0767ZM79.5497 47.252C77.855 47.252 76.4993 46.8283 75.4825 45.981C74.5081 45.1337 74.0209 44.0533 74.0209 42.74C74.0209 41.5537 74.4445 40.6004 75.2919 39.8802C76.1392 39.16 77.0924 38.7999 78.1516 38.7999C79.2108 38.7999 80.1005 39.0117 80.8207 39.4354C81.5409 39.9014 82.1764 40.5581 82.7272 41.4054L83.1721 41.9138C84.1041 43.1848 85.0362 43.1636 85.9683 41.8503C86.3496 41.2148 86.7732 40.3674 87.2393 39.3083C87.7477 38.2915 88.3196 36.9145 88.9551 35.1775L76.6264 5.6903C76.3298 4.88533 76.0121 4.24983 75.6732 3.7838C75.3342 3.2754 74.7835 2.85173 74.0209 2.5128L72.877 2.06795V1.43245H88.7009V2.0044L87.4299 2.5128C86.4978 2.80936 86.0106 3.29658 85.9683 3.97445C85.9683 4.60995 86.1377 5.41491 86.4767 6.38935L93.0859 23.5478L99.3773 6.1987C99.7162 5.22426 99.8433 4.4193 99.7586 3.7838C99.6739 3.10593 99.1443 2.6399 98.1699 2.3857L96.8353 2.06795V1.43245H105.669V2.06795L104.271 2.5128C103.296 2.80936 102.618 3.23303 102.237 3.7838C101.856 4.33456 101.496 5.09716 101.157 6.0716L90.9252 33.9701C89.2729 38.4186 87.6206 41.7443 85.9683 43.9474C84.316 46.1505 82.1764 47.252 79.5497 47.252ZM105.831 32.9533C104.305 32.9533 103.013 32.4237 101.954 31.3645C100.895 30.3053 100.365 29.0343 100.365 27.5515C100.365 26.0687 100.895 24.7765 101.954 23.6749C103.013 22.5734 104.305 22.0226 105.831 22.0226C107.356 22.0226 108.648 22.5734 109.707 23.6749C110.766 24.7765 111.296 26.0687 111.296 27.5515C111.296 29.0343 110.766 30.3053 109.707 31.3645C108.648 32.4237 107.356 32.9533 105.831 32.9533Z" fill="#3E1C09"/>
</svg>
