<svg width="128" height="53" viewBox="0 0 128 53" fill="none" xmlns="http://www.w3.org/2000/svg">
<g opacity="0.8">
<g clip-path="url(#clip0_34_47)">
<path d="M3.59995 0.200806H124.4C126.278 0.200806 127.8 1.7288 127.8 3.61368V49.3864C127.8 51.2711 126.278 52.7993 124.4 52.7993H3.59995C1.72218 52.7993 0.199951 51.2711 0.199951 49.3864V3.61368C0.199951 1.7288 1.72218 0.200806 3.59995 0.200806Z" fill="#FFFBF6" stroke="black"/>
<path d="M69.168 42.49C67.312 42.49 65.744 41.96 64.464 40.9C63.216 39.8399 62.592 38.3142 62.592 36.3227C62.592 34.813 63.36 33.4318 64.896 32.179C66.432 30.8942 68.848 29.9305 72.144 29.2881C72.656 29.1918 73.232 29.0954 73.872 28.999C74.512 28.8705 75.184 28.7421 75.888 28.6136V24.8072C75.888 22.623 75.616 21.0972 75.072 20.2299C74.56 19.3305 73.744 18.8808 72.624 18.8808C71.856 18.8808 71.248 19.1378 70.8 19.6518C70.352 20.1336 70.064 20.9848 69.936 22.2054L69.84 22.7354C69.776 24.1166 69.44 25.1284 68.832 25.7708C68.224 26.4133 67.472 26.7345 66.576 26.7345C65.744 26.7345 65.056 26.4775 64.512 25.9636C63.968 25.4496 63.696 24.759 63.696 23.8918C63.696 22.5748 64.144 21.4666 65.04 20.5672C65.968 19.6678 67.184 18.9933 68.688 18.5436C70.192 18.0939 71.824 17.869 73.584 17.869C76.432 17.869 78.624 18.5757 80.16 19.989C81.728 21.3702 82.512 23.6348 82.512 26.7827V37.4308C82.512 38.8763 83.184 39.599 84.528 39.599H85.584L86.016 39.9845C85.408 40.7554 84.736 41.3497 84 41.7673C83.296 42.1848 82.288 42.3936 80.976 42.3936C79.568 42.3936 78.448 42.0724 77.616 41.43C76.816 40.7554 76.288 39.8721 76.032 38.7799C75.072 39.8078 74.08 40.6912 73.056 41.43C72.064 42.1366 70.768 42.49 69.168 42.49ZM72.096 39.5508C72.736 39.5508 73.328 39.4063 73.872 39.1172C74.448 38.796 75.12 38.3142 75.888 37.6718V29.5772C75.568 29.6415 75.248 29.7057 74.928 29.7699C74.608 29.8342 74.24 29.8984 73.824 29.9627C72.352 30.3481 71.168 31.0066 70.272 31.9381C69.408 32.8375 68.976 34.0581 68.976 35.5999C68.976 36.9169 69.28 37.9127 69.888 38.5872C70.496 39.2296 71.232 39.5508 72.096 39.5508ZM86.6152 41.7673V41.2854L87.8152 40.8518C88.4552 40.5948 88.9512 40.2897 89.3032 39.9363C89.6552 39.5508 89.9432 39.0208 90.1672 38.3463L100.055 9.87085H104.135L113.879 38.539C114.135 39.2457 114.423 39.7918 114.743 40.1773C115.063 40.5306 115.559 40.8357 116.231 41.0927L116.807 41.2854V41.7673H104.615V41.2854L105.335 41.0445C106.007 40.7876 106.407 40.4342 106.535 39.9845C106.695 39.5027 106.679 38.9405 106.487 38.2981L104.231 31.3599H93.5752L91.2712 38.1536C91.0472 38.8602 90.9672 39.4224 91.0312 39.8399C91.1272 40.2576 91.5112 40.5948 92.1832 40.8518L93.2392 41.2854V41.7673H86.6152ZM93.9112 30.3963H103.943L99.0952 15.4118L93.9112 30.3963Z" fill="#461F09"/>
</g>
</g>
<defs>
<clipPath id="clip0_34_47">
<rect width="128" height="53" rx="4" fill="white"/>
</clipPath>
</defs>
</svg>
