<svg width="20" height="21" viewBox="0 0 20 21" fill="none" xmlns="http://www.w3.org/2000/svg">
<path d="M8 5.5C7.9998 6.89064 8.41381 8.24983 9.18923 9.40421C9.96465 10.5586 11.0663 11.4559 12.3538 11.9816C13.6412 12.5073 15.0561 12.6376 16.4179 12.3559C17.7797 12.0742 19.0268 11.3933 20 10.4V10.5C20 16.023 15.523 20.5 10 20.5C4.477 20.5 0 16.023 0 10.5C0 4.977 4.477 0.5 10 0.5H10.1C9.43404 1.15113 8.90514 1.92896 8.54448 2.78768C8.18382 3.6464 7.99869 4.56862 8 5.5ZM2 10.5C1.99927 12.285 2.59553 14.0189 3.69389 15.426C4.79226 16.833 6.32963 17.8323 8.06141 18.2648C9.79319 18.6974 11.6199 18.5383 13.2508 17.813C14.8818 17.0876 16.2233 15.8377 17.062 14.262C15.5694 14.6136 14.0118 14.5781 12.5368 14.1587C11.0619 13.7394 9.7185 12.9501 8.63421 11.8658C7.54992 10.7815 6.76065 9.43814 6.34128 7.96318C5.92192 6.48821 5.88636 4.93056 6.238 3.438C4.95758 4.12014 3.88678 5.13766 3.14026 6.38164C2.39373 7.62562 1.99958 9.04921 2 10.5Z" fill="black"/>
</svg>
