<svg width="23" height="15" viewBox="0 0 23 15" fill="none" xmlns="http://www.w3.org/2000/svg">
<path opacity="0.5" d="M6.443 0.349976C7.082 0.349976 7.673 0.399976 8.213 0.547976C8.70301 0.638021 9.17075 0.822806 9.59 1.09198C9.984 1.33898 10.279 1.68598 10.475 2.13098C10.672 2.57598 10.77 3.12098 10.77 3.71398C10.77 4.40698 10.623 4.99998 10.279 5.44498C9.984 5.89098 9.492 6.28598 8.902 6.58298C9.738 6.83098 10.377 7.27598 10.77 7.86898C11.164 8.46298 11.41 9.20498 11.41 10.046C11.41 10.739 11.262 11.332 11.016 11.827C10.77 12.322 10.377 12.767 9.934 13.064C9.45279 13.3823 8.92084 13.6164 8.361 13.756C7.771 13.905 7.181 14.004 6.591 14.004H0V0.349976H6.443ZM6.049 5.88998C6.59 5.88998 7.033 5.74198 7.377 5.49498C7.721 5.24798 7.869 4.80198 7.869 4.25798C7.869 3.96098 7.819 3.66398 7.721 3.46698C7.623 3.26898 7.475 3.11998 7.279 2.97198C7.082 2.87298 6.885 2.77398 6.639 2.72498C6.393 2.67498 6.148 2.67498 5.852 2.67498H3V5.89098H6.05L6.049 5.88998ZM6.197 11.728C6.492 11.728 6.787 11.678 7.033 11.629C7.28137 11.5817 7.51628 11.4803 7.721 11.332C7.92138 11.1872 8.08903 11.0018 8.213 10.788C8.311 10.541 8.41 10.244 8.41 9.89798C8.41 9.20498 8.213 8.70998 7.82 8.36398C7.426 8.06698 6.885 7.91898 6.246 7.91898H3V11.729L6.197 11.728ZM15.689 11.678C16.082 12.074 16.672 12.272 17.459 12.272C18 12.272 18.492 12.124 18.885 11.877C19.279 11.58 19.525 11.283 19.623 10.986H22.033C21.639 12.173 21.049 13.014 20.263 13.558C19.475 14.053 18.541 14.35 17.41 14.35C16.6864 14.3522 15.9688 14.2178 15.295 13.954C14.6887 13.7265 14.148 13.3528 13.721 12.866C13.2643 12.4106 12.9267 11.8497 12.738 11.233C12.492 10.59 12.393 9.89798 12.393 9.10598C12.393 8.36398 12.492 7.67198 12.738 7.02798C12.9745 6.40806 13.3245 5.83766 13.77 5.34598C14.213 4.90098 14.754 4.50598 15.344 4.25798C16.0007 3.99404 16.7022 3.85957 17.41 3.86198C18.246 3.86198 18.984 4.01098 19.623 4.35698C20.263 4.70298 20.754 5.09898 21.148 5.69298C21.5499 6.26351 21.8494 6.89968 22.033 7.57298C22.131 8.26498 22.18 8.95798 22.131 9.74898H15C15 10.541 15.295 11.283 15.689 11.679V11.678ZM18.787 6.48398C18.443 6.13798 17.902 5.93998 17.262 5.93998C16.82 5.93998 16.475 6.03898 16.18 6.18698C15.885 6.33598 15.689 6.53398 15.492 6.73198C15.311 6.92323 15.1912 7.16419 15.148 7.42398C15.098 7.67198 15.049 7.86898 15.049 8.06698H19.475C19.377 7.32498 19.131 6.83098 18.787 6.48398ZM14.459 1.28998H19.967V2.62598H14.46V1.28998H14.459Z" fill="black"/>
</svg>
