<svg width="12" height="18" viewBox="0 0 12 18" fill="none" xmlns="http://www.w3.org/2000/svg">
<path opacity="0.5" d="M7.64062 0L7.42969 0.234375L7.125 0.515625L7.05469 0.609375L7.00781 0.703125L5.67188 3.23438L5.55469 3.30469H0V8.92969H2.69531L0.09375 13.8984L0 14.0625V18H4.07812L4.28906 17.7656L4.59375 17.4844L4.66406 17.3906L4.71094 17.2969L6.04688 14.7656L6.16406 14.6953H11.7188V9.07031H9.02344L11.625 4.10156L11.7188 3.9375V0H7.64062ZM8.27344 1.5H10.2188V3.58594L7.26562 9.1875L7.05469 9.63281L7.35938 10.0078L7.61719 10.3125L7.82812 10.5703H10.2188V13.1953H5.69531L5.48438 13.3359L5.03906 13.6172L4.89844 13.7344L4.80469 13.8984L3.44531 16.5H1.5V14.4141L4.42969 8.8125L4.66406 8.39062L4.35938 7.99219L4.10156 7.6875L3.89062 7.42969H1.5V4.80469H6.02344L6.21094 4.66406L6.65625 4.38281L6.82031 4.26562L6.91406 4.10156L8.27344 1.5Z" fill="black"/>
</svg>
