<svg width="18" height="21" viewBox="0 0 18 21" fill="none" xmlns="http://www.w3.org/2000/svg">
<path opacity="0.5" d="M10.7014 13.3818C10.5588 13.4172 10.4154 13.4486 10.2712 13.4759C9.48841 13.6259 8.68477 13.6228 7.90316 13.4669C7.76627 13.4397 7.57249 13.3918 7.32271 13.3239L6.50405 14.4069C4.4836 14.3409 3.7156 12.9629 3.7156 12.9629C3.7156 9.90394 5.03205 7.42399 5.03205 7.42399C6.34849 6.39889 7.60094 6.42694 7.60094 6.42694L7.95916 6.90194C7.99217 6.89723 8.0254 6.89421 8.05871 6.89289C8.74156 6.80076 9.43356 6.8038 10.1156 6.90194L10.5085 6.42694C10.5085 6.42694 11.7618 6.39889 13.0774 7.42489C13.0774 7.42489 14.3947 9.90394 14.3947 12.9629C14.3947 12.9629 13.6169 14.34 11.5965 14.4069L10.7014 13.3818ZM7.28982 10.1428C6.7556 10.1428 6.33338 10.5499 6.33338 11.0476C6.33338 11.5452 6.76449 11.9523 7.28982 11.9523C7.82316 11.9523 8.24538 11.5452 8.24538 11.0476C8.25427 10.5499 7.82405 10.1428 7.28982 10.1428ZM10.7103 10.1428C10.1769 10.1428 9.75471 10.5499 9.75471 11.0476C9.75471 11.5452 10.1858 11.9523 10.7103 11.9523C11.2445 11.9523 11.6667 11.5452 11.6667 11.0476C11.6667 10.5499 11.2445 10.1428 10.7103 10.1428ZM17 20.9999C17 20.9999 10.2867 17.4421 12.5645 16.4761C13.52 16.0709 14.2065 16.6893 15.2223 16.4761C20.0635 15.4603 15.2223 3.80946 15.2223 3.80946H2.77782C2.77782 3.80946 -0.721259 12.9796 2.77782 16.4761C5.8483 19.5444 17.2178 15.0555 13.8191 17.7557C13.5372 17.9796 13.369 18.093 13.0649 18.2857C9.67114 20.4354 2.77782 18.2857 2.77782 18.2857C2.30633 18.2857 1.52075 17.7557 1.52075 17.7557C1.18735 17.4163 1.00005 16.956 1.00005 16.4761C1.00005 15.9962 1.00005 3.80946 1.00005 3.80946C1.00005 3.32955 1.18735 2.86929 1.52075 2.52994C1.85414 2.19058 -0.948399 6.49994 2.77782 1.99994C6.50405 -2.50006 15.2223 1.99994 15.2223 1.99994C15.6938 1.99994 16.1459 2.19058 16.4793 2.52994C16.8127 2.86929 17 3.32955 17 3.80946V20.9999Z" fill="black"/>
</svg>
